HIERARCHY
ROOT Hip
{
    OFFSET 0.0 0.0 0.0
    CHANNELS 6 Xposition Yposition Zposition Zrotation Xrotation Yrotation
    JOINT RightHip
    {
        OFFSET -12.327881545957279 0.0 0.0
        CHANNELS 3 Zrotation Xrotation Yrotation
        JOINT RightKnee
        {
            OFFSET 0.0 0.0 -41.46891246093215
            CHANNELS 3 Zrotation Xrotation Yrotation
            JOINT RightAnkle
            {
                OFFSET 0.0 0.0 -41.11373258541474
                CHANNELS 3 Zrotation Xrotation Yrotation
                End Site
                {
                    OFFSET 0.0 -16.4454930341659 0.0
                }
            }
        }
    }
    JOINT LeftHip
    {
        OFFSET 12.327881545957279 0.0 0.0
        CHANNELS 3 Zrotation Xrotation Yrotation
        JOINT LeftKnee
        {
            OFFSET 0.0 0.0 -41.46891246093215
            CHANNELS 3 Zrotation Xrotation Yrotation
            JOINT LeftAnkle
            {
                OFFSET 0.0 0.0 -41.11373258541474
                CHANNELS 3 Zrotation Xrotation Yrotation
                End Site
                {
                    OFFSET 0.0 -16.4454930341659 0.0
                }
            }
        }
    }
    JOINT Spine
    {
        OFFSET 0.0 0.0 22.06610730195231
        CHANNELS 3 Zrotation Xrotation Yrotation
        JOINT Thorax
        {
            OFFSET 0.0 0.0 22.42237947416306
            CHANNELS 3 Zrotation Xrotation Yrotation
            JOINT Neck
            {
                OFFSET 0.0 0.0 2.5147146173716957
                CHANNELS 3 Zrotation Xrotation Yrotation
                JOINT Head
                {
                    OFFSET 0.0 0.0 20.88413233412423
                    CHANNELS 3 Zrotation Xrotation Yrotation
                    End Site
                    {
                        OFFSET -8.353652933649693 0.0 0.0
                    }
                }
            }
            JOINT LeftShoulder
            {
                OFFSET 18.255728316152226 0.0 0.0
                CHANNELS 3 Zrotation Xrotation Yrotation
                JOINT LeftElbow
                {
                    OFFSET 30.249375729270543 0.0 0.0
                    CHANNELS 3 Zrotation Xrotation Yrotation
                    JOINT LeftWrist
                    {
                        OFFSET 26.04312528554653 0.0 0.0
                        CHANNELS 3 Zrotation Xrotation Yrotation
                        End Site
                        {
                            OFFSET 10.417250114218614 0.0 0.0
                        }
                    }
                }
            }
            JOINT RightShoulder
            {
                OFFSET -18.255728316152226 0.0 0.0
                CHANNELS 3 Zrotation Xrotation Yrotation
                JOINT RightElbow
                {
                    OFFSET -30.249375729270543 0.0 0.0
                    CHANNELS 3 Zrotation Xrotation Yrotation
                    JOINT RightWrist
                    {
                        OFFSET -26.04312528554653 0.0 0.0
                        CHANNELS 3 Zrotation Xrotation Yrotation
                        End Site
                        {
                            OFFSET -10.417250114218614 0.0 0.0
                        }
                    }
                }
            }
            JOINT Nose
            {
                OFFSET 0.0 0.0 20.308533650732112
                CHANNELS 3 Zrotation Xrotation Yrotation
                End Site
                {
                    OFFSET -8.123413460292845 0.0 0.0
                }
            }
        }
    }
}
MOTION
Frames: 6
Frame Time: 0.03333333333333333
1.3861236329346864 66.7736174365674 16.998453837844103 -2.1940722466878766 -3.681370812777618 0.5299150298032627 -7.960971665882617 10.388441291162783 1.2745220026272366 1.0526102506837298 5.592903782544963 0.6982563290315821 -2.737139159435401e-33 1.5778532990072913e-15 1.9878466759146977e-16 8.606687250991364 9.627413101140947 -1.2750412214801163 1.6781381769628787 9.509386315565639 -1.755774088863388 0.0 0.0 0.0 3.9037621631541963e-16 7.391919449716973 1.241823715357484e-16 1.040706676229604 -0.011294984612760262 0.6553293806033462 -0.5130248016520886 -15.661516602767373 -1.6710753449714646 0.0 0.0 0.0 -90.50034360333638 22.610740493319863 17.717425156404943 8.471568497262937e-16 5.0481153016756925e-15 -19.05281630934071 -2.2069531490250793e-32 1.5902773407317584e-15 1.5902773407317584e-15 100.82820634587671 41.10364429368088 -22.147671002007712 -5.549798093829566e-15 -5.6942331905927024e-15 17.732108533883405 0.0 0.0 -3.1805546814635168e-15 0.0 0.0 6.212020862233431e-18
1.3861236329346864 66.7736174365674 16.998453837844103 -2.1940718764249993 -3.681370732020801 0.5299124794016037 -7.960972560376127 10.388439457078142 1.274519414146535 1.0526098350698267 5.5929052768089935 0.6982567295646029 0.0 0.0 0.0 8.606691368175916 9.62742434387771 -1.2750411667271153 1.678127409357927 9.509358457892258 -1.7557679440574692 0.0 0.0 0.0 -4.1460388868200355e-16 7.391915410113291 2.5088069656725315e-16 1.0407270249605307 -0.011294883084244813 0.6553376710469805 -0.5130474328275574 -15.66151240447 -1.671081649149558 0.0 0.0 0.0 -90.5003661529671 22.610754186173406 17.7174165610232 -1.2160205796803414e-14 4.409062426236351e-15 -19.05280324396238 0.0 0.0 1.5902773407317584e-15 100.82821755333816 41.103692590221854 -22.14769441618987 1.1344698339291086e-14 9.817189995618902e-15 17.73210138565807 0.0 0.0 -3.1805546814635168e-15 0.0 0.0 -8.696829207126804e-17
1.3820055710190131 66.5988227847757 17.035210141787203 -1.814670879184307 -3.718543806687316 0.22935065599001833 -8.391206442282042 10.259893114418437 1.3749651390178639 0.9631529310511957 5.916977297317424 0.7753566966705485 0.0 0.0 1.987846675914698e-16 8.12940342828149 9.070235023584793 -1.1561545903942128 1.7396772847151198 10.633660896742292 -1.8541049977444581 0.0 1.242404172446686e-17 0.0 2.3778357653459786e-18 7.256845636733222 -3.7497773846739196e-17 0.6917239803176568 -0.010327362195010067 0.6354635618607222 -0.6612133569854731 -15.37004573511746 -1.84667712337062 0.0 0.0 2.4848083448933725e-17 -90.41566608468634 21.472126423409744 18.249036051268064 5.8524247493751824e-15 -3.3487307466872742e-15 -20.816462010459233 0.0 0.0 0.0 97.39664356667753 35.14634074516314 -19.786961455111417 3.152538629820625e-15 -1.5587164663016045e-14 22.86791597503645 6.3611093629270335e-15 0.0 0.0 -2.155227684594804e-35 3.975693351829396e-16 6.212020862233431e-18
1.386449368541094 66.7874435623188 16.995546441792424 -1.212034212828934 -3.645604579194222 -3.8267200604868457 -10.453080627648314 8.749640798656268 2.168019860109648 2.1281332684245937 7.136365401144383 1.021950330280793 0.0 0.0 0.0 7.312783512276174 9.460393003102906 -1.7615466112939018 -0.061711265421236325 10.257958218902226 -1.2732872730698914 1.5902773407317584e-15 -4.969616689786746e-17 -9.93923337957349e-16 -9.706910947991722e-17 6.951638836019522 -1.6806642423134981e-15 -0.15232306138061275 -0.0467929881703941 3.68966402610914 -0.9790676905258324 -14.743516685362845 -1.9259351316922668 -1.987846675914698e-16 8.620910738379216e-35 -4.969616689786745e-17 -89.27250413400043 16.83779579716562 17.719620555060335 6.022960481132723e-16 2.308126733181716e-15 -29.249930376736188 0.0 0.0 -1.5902773407317584e-15 90.91818887289033 20.59786736572067 -17.590597047400344 1.124654092228188e-15 -2.6808794849711793e-15 45.51701250901016 0.0 0.0 1.1927080055488188e-15 0.0 0.0 9.318031293350147e-18
1.3901583032379226 66.94487246021441 16.962441856719796 -1.2265874607950362 -3.559905596487149 -9.361775261085178 -11.885776089981633 6.850946895180717 2.290863931998706 2.963781355270627 8.020527208673897 1.2192594971232047 0.0 0.0 9.93923337957349e-17 6.4268492500980825 11.056829166947924 -2.0563126374698846 -1.0846976422518066 8.133468287276628 -0.7094908287910767 0.0 0.0 1.987846675914698e-16 -8.556086365821788e-17 6.9194505537087965 5.917247392908785e-16 -0.5236980118149955 -0.06989102645376497 8.23023191123821 -0.9661030079448395 -14.585906863002812 -1.0174137176568254 1.987846675914698e-16 4.310455369189608e-35 2.4848083448933725e-17 -88.29633290772622 13.829509286121528 17.400668945847617 -8.627699574696786e-15 -4.8048589169904135e-15 -41.570374248121375 0.0 0.0 3.975693351829396e-16 89.58246611456254 20.93677412728081 -17.41007717978998 8.990972146670814e-15 1.0281748840040225e-14 54.98952476912157 0.0 0.0 -1.5902773407317584e-15 0.0 0.0 -9.318031293350146e-17
1.390791914632588 66.97176663649675 16.956786474775324 -0.7385847807783343 -3.6535351237364195 -13.93932181068144 -13.52671555148666 5.134955302967402 2.0177606817495883 3.7861999802949993 8.042475396606987 1.332788321103369 0.0 0.0 6.957463365701443e-16 4.965071134306398 12.1402693826095 -1.7679229666577139 -1.634910097328823 7.333416268024651 -0.36925946618638134 0.0 0.0 6.957463365701443e-16 1.8627660575872256e-16 6.923646925544189 2.127729812643929e-16 -1.2103142628853178 -0.03160591641489599 11.717283451242658 -0.724338091153456 -14.475847582498456 -0.10788855492605784 6.896728590703373e-34 -1.5902773407317582e-15 4.9696166897867443e-17 -88.91758245870014 13.90665947673278 17.67874370997548 2.5249480581538727e-15 -1.0187905406375483e-14 -46.76872321389837 2.2069531490250793e-32 -3.1805546814635168e-15 7.951386703658792e-16 89.03077976024825 23.284877586141945 -16.992949490136642 1.2032312065124248e-15 -1.9437435316572935e-15 63.517315040180776 0.0 0.0 0.0 0.0 0.0 7.765026077791789e-18
